# xmcd CD database file
#
# Track frame offsets:
#	150
#	22421
#	46639
#	67288
#	93012
#	113006
#	136629
#	161955
#	188362
#	208168
#	235795
#	258233
#	269671
#
# Disc length: 3876 seconds
#
# Revision: 14
# Processed by: cddbd v1.5.2PL0 Copyright (c) Steve Scherf et al.
# Submitted via: CDex 1.51
#
DISCID=b30f220d
DTITLE=Iny Lorentz - Die Wanderhure CD06
DYEAR=2004
DGENRE=Hörbuch
TTITLE0=Die Wanderhure CD06-01
TTITLE1=Die Wanderhure CD06-02
TTITLE2=Die Wanderhure CD06-03
TTITLE3=Die Wanderhure CD06-04
TTITLE4=Die Wanderhure CD06-05
TTITLE5=Die Wanderhure CD06-06
TTITLE6=Die Wanderhure CD06-07
TTITLE7=Die Wanderhure CD06-08
TTITLE8=Die Wanderhure CD06-09
TTITLE9=Die Wanderhure CD06-10
TTITLE10=Die Wanderhure CD06-11
TTITLE11=Die Wanderhure CD06-12
TTITLE12=Die Wanderhure CD06-13
EXTD=gelesen von Anne Moll YEAR: 2004
EXTT0=
EXTT1=
EXTT2=
EXTT3=
EXTT4=
EXTT5=
EXTT6=
EXTT7=
EXTT8=
EXTT9=
EXTT10=
EXTT11=
EXTT12=
PLAYORDER=
